<svg xmlns="http://www.w3.org/2000/svg" width="933.333" height="933.333" preserveAspectRatio="xMidYMid meet" version="1.0" viewBox="0 0 700 700"><metadata>Created by potrace 1.11, written by Peter Selinger 2001-2013</metadata><g fill="#000" stroke="none"><path d="M1070 6968 c-109 -8 -143 -13 -220 -33 -309 -80 -575 -302 -715 -596 -42 -90 -82 -215 -91 -282 -2 -18 -6 -50 -10 -71 -9 -54 -8 -4857 1 -4926 48 -381 277 -701 624 -871 93 -45 156 -65 286 -89 96 -18 190 -19 2555 -17 1350 2 2471 6 2490 11 189 42 296 83 413 158 59 37 70 46 141 107 180 157 315 398 363 649 3 20 8 1144 9 2497 3 2355 2 2464 -16 2555 -23 118 -51 202 -100 303 -164 331 -506 567 -872 603 -88 8 -4748 11 -4858 2z" transform="translate(0.000000,700.000000) scale(0.100000,-0.100000)"/></g></svg>